<svg width="119" height="80" viewBox="0 0 119 80" fill="none" xmlns="http://www.w3.org/2000/svg">
<path d="M0 0.704834V7.91187H70.6562V61.9646H47.7636C46.1051 55.7702 40.3559 51.1541 33.4688 51.1541C26.5816 51.1541 20.8324 55.7702 19.1739 61.9646H14.875V43.947H7.4375V69.1716H19.1739C20.8324 75.3661 26.5816 79.9822 33.4688 79.9822C40.3559 79.9822 46.1051 75.3661 47.7636 69.1716H78.6739C80.3324 75.3661 86.0816 79.9822 92.9688 79.9822C99.8559 79.9822 105.605 75.3661 107.264 69.1716H119V39.7814L118.766 39.2156L111.328 17.5945L110.521 15.1189H78.0938V0.704834H0ZM3.71875 15.1189V22.3259H37.1875V15.1189H3.71875ZM78.0938 22.3259H105.17L111.562 40.7939V61.9646H107.264C105.605 55.7702 99.8559 51.1541 92.9688 51.1541C86.0816 51.1541 80.3324 55.7702 78.6739 61.9646H78.0938V22.3259ZM7.4375 29.533V36.74H29.75V29.533H7.4375ZM33.4688 58.3611C37.6226 58.3611 40.9062 61.543 40.9062 65.5681C40.9062 69.5932 37.6226 72.7751 33.4688 72.7751C29.3149 72.7751 26.0312 69.5932 26.0312 65.5681C26.0312 61.543 29.3149 58.3611 33.4688 58.3611ZM92.9688 58.3611C97.1226 58.3611 100.406 61.543 100.406 65.5681C100.406 69.5932 97.1226 72.7751 92.9688 72.7751C88.8149 72.7751 85.5312 69.5932 85.5312 65.5681C85.5312 61.543 88.8149 58.3611 92.9688 58.3611Z" fill="#013295"/>
</svg>
