<svg width="30" height="25" viewBox="0 0 30 25" fill="none" xmlns="http://www.w3.org/2000/svg">
<path d="M9.28057 19.8918L3.02494 13.1491C2.86136 12.9706 2.66654 12.8289 2.45177 12.7322C2.237 12.6355 2.00656 12.5857 1.77381 12.5857C1.54106 12.5857 1.31062 12.6355 1.09585 12.7322C0.881085 12.8289 0.686265 12.9706 0.522684 13.1491C0.357107 13.3254 0.225646 13.5354 0.135923 13.7669C0.0462006 13.9984 0 14.2468 0 14.4976C0 14.7485 0.0462006 14.9969 0.135923 15.2284C0.225646 15.4599 0.357107 15.6699 0.522684 15.8462L8.01157 23.9181C8.70862 24.6694 9.83464 24.6694 10.5317 23.9181L29.4773 3.51674C29.6429 3.34042 29.7744 3.13043 29.8641 2.89895C29.9538 2.66746 30 2.41908 30 2.1682C30 1.91733 29.9538 1.66895 29.8641 1.43746C29.7744 1.20598 29.6429 0.995988 29.4773 0.819672C29.3137 0.641203 29.1189 0.499508 28.9041 0.4028C28.6894 0.306091 28.4589 0.256294 28.2262 0.256294C27.9934 0.256294 27.763 0.306091 27.5482 0.4028C27.3335 0.499508 27.1386 0.641203 26.9751 0.819672L9.28057 19.8918Z" fill="#013295"/>
</svg>
