<svg width="110" height="152" viewBox="0 0 110 152" fill="none" xmlns="http://www.w3.org/2000/svg">
<path d="M20 51H29C31.7614 51 34 53.2386 34 56V99C34 101.761 31.7614 104 29 104H20" stroke="#FFCD00" stroke-width="2"/>
<path d="M8 151L18.5 140.5" stroke="#FFCD00" stroke-width="2"/>
<path d="M4 11.5L14.5 1" stroke="#FFCD00" stroke-width="2"/>
<path d="M1 26.5L18.5 8.5" stroke="#FFCD00" stroke-width="2"/>
<path d="M1 37.5L18.5 19.5" stroke="#FFCD00" stroke-width="2"/>
<path d="M1 48.5L18.5 30.5" stroke="#FFCD00" stroke-width="2"/>
<path d="M1 59.5L18.5 41.5" stroke="#FFCD00" stroke-width="2"/>
<path d="M1 70.5L18.5 52.5" stroke="#FFCD00" stroke-width="2"/>
<path d="M1 81.5L18.5 63.5" stroke="#FFCD00" stroke-width="2"/>
<path d="M1 92.5L18.5 74.5" stroke="#FFCD00" stroke-width="2"/>
<path d="M1 103.5L18.5 85.5" stroke="#FFCD00" stroke-width="2"/>
<path d="M1 114.5L18.5 96.5" stroke="#FFCD00" stroke-width="2"/>
<path d="M1 125.5L18.5 107.5" stroke="#FFCD00" stroke-width="2"/>
<path d="M1 136.5L18.5 118.5" stroke="#FFCD00" stroke-width="2"/>
<path d="M1 147.5L18.5 129.5" stroke="#FFCD00" stroke-width="2"/>
<path d="M19 151V2" stroke="#FFCD00" stroke-width="2"/>
<path d="M34.5 57.5H36.5C39.2614 57.5 41.5 59.7386 41.5 62.5V93C41.5 95.7614 39.2614 98 36.5 98H34.5" stroke="#FFCD00" stroke-width="2"/>
<path d="M102 67H104C106.761 67 109 69.2386 109 72V84C109 86.7614 106.761 89 104 89H102" stroke="#FFCD00" stroke-width="2"/>
<path d="M41.5 68.5H62.5" stroke="#FFCD00" stroke-width="2"/>
<path d="M42 88H62.5" stroke="#FFCD00" stroke-width="2"/>
<path d="M102 77.5C102 86.5928 99.6877 94.7774 96.002 100.657C92.3077 106.55 87.3312 110 82 110C76.6688 110 71.6923 106.55 67.998 100.657C64.3123 94.7774 62 86.5928 62 77.5C62 68.4072 64.3123 60.2226 67.998 54.3431C71.6923 48.4498 76.6688 45 82 45C87.3312 45 92.3077 48.4498 96.002 54.3431C99.6877 60.2226 102 68.4072 102 77.5Z" stroke="#FFCD00" stroke-width="2"/>
<line x1="92" y1="50" x2="92" y2="105" stroke="#FFCD00" stroke-width="2"/>
<path d="M70 78.5V77V75.5V75V73.5V72.5L70.2263 70.5L70.3032 70.0784C70.4337 69.3631 70.6651 68.6699 70.9902 68.0195V68.0195C70.9967 68.0065 71.0029 67.9942 71.0093 67.9811C71.0827 67.8324 71.576 66.8336 72 66C72.0765 65.8495 72.153 65.6984 72.2295 65.5467C73.0717 63.8753 73.937 61.9844 74.9033 60.3815V60.3815C75.3132 59.7016 75.7218 59.1673 76.1622 58.5067L76.5 58L78.5 55.5M78.3136 55.733L79 55L79.5 54.5L80 54L80.1464 53.8536C80.3728 53.6272 80.6799 53.5 81 53.5V53.5H81.5H83" stroke="#FFCD00" stroke-width="2"/>
</svg>
