<svg width="107" height="85" viewBox="0 0 107 85" fill="none" xmlns="http://www.w3.org/2000/svg">
<path d="M48.1124 68.4451V63.0843H37.3372V52.8502H58.8876V47.4894H42.8501C41.3466 47.4894 40.0519 47.0021 38.966 46.0274C37.8802 45.0527 37.3372 43.8344 37.3372 42.3724V26.7775C37.3372 25.3155 37.8802 24.0971 38.966 23.1225C40.0519 22.1478 41.3466 21.6604 42.8501 21.6604H48.1124V16.2997H58.8876V21.6604H69.4122V31.8946H48.1124V37.2553H64.1499C65.6534 37.2553 66.9063 37.7426 67.9087 38.7173C68.911 39.692 69.4122 40.9104 69.4122 42.3724V57.9672C69.4122 59.4293 68.911 60.6476 67.9087 61.6223C66.9063 62.597 65.6534 63.0843 64.1499 63.0843H58.8876V68.4451H48.1124ZM96.2248 0.704834C99.2319 0.704834 101.779 1.72013 103.868 3.75071C105.956 5.78129 107 8.2586 107 11.1826V73.5621C107 76.4862 105.956 78.9635 103.868 80.994C101.779 83.0246 99.2319 84.0399 96.2248 84.0399H10.7752C7.76815 84.0399 5.22053 83.0246 3.13232 80.994C1.04411 78.9635 0 76.4862 0 73.5621V11.1826C0 8.2586 1.04411 5.78129 3.13232 3.75071C5.22053 1.72013 7.76815 0.704834 10.7752 0.704834H96.2248ZM96.2248 73.5621V11.1826H10.7752V73.5621H96.2248Z" fill="#013295"/>
</svg>
