<svg width="33" height="33" viewBox="0 0 33 33" fill="none" xmlns="http://www.w3.org/2000/svg">
<path d="M32.9982 23.8872V30.1688C32.9984 30.6186 32.8225 31.0517 32.5061 31.3807C32.1897 31.7097 31.7563 31.9102 31.2933 31.9417C30.4921 31.995 29.8377 32.0234 29.3317 32.0234C13.1314 32.0234 0 19.2985 0 3.59983C0 3.10952 0.0274985 2.47532 0.0843287 1.699C0.116818 1.25034 0.323714 0.83032 0.66327 0.523697C1.00283 0.217074 1.44976 0.0466717 1.91389 0.0468755H8.3962C8.62359 0.0466523 8.84295 0.128342 9.01167 0.276077C9.18038 0.423811 9.28641 0.627042 9.30915 0.84629C9.35131 1.25488 9.38981 1.57997 9.42648 1.8269C9.7908 4.29074 10.5374 6.68704 11.641 8.93458C11.8152 9.28988 11.7015 9.71446 11.3715 9.94184L7.41542 12.6812C9.83429 18.1429 14.3259 22.4954 19.9621 24.8394L22.7852 21.0128C22.9006 20.8565 23.069 20.7444 23.261 20.696C23.4529 20.6476 23.6563 20.6661 23.8357 20.7481C26.1548 21.8156 28.627 22.5373 31.1686 22.8888C31.4234 22.9243 31.7589 22.9634 32.1769 23.0025C32.4028 23.0249 32.6121 23.1279 32.7642 23.2913C32.9162 23.4548 33.0003 23.6671 33 23.8872H32.9982Z" fill="#7ACD37"/>
</svg>
