<svg width="32" height="32" viewBox="0 0 32 32" fill="none" xmlns="http://www.w3.org/2000/svg">
<path d="M8.3321 1.63654C6.34547 1.63654 3.45584 3.77665 2.73343 5.20339C1.70039 7.24364 1.87088 8.04261 2.55283 10.197C3.45584 13.0505 6.10274 18.1083 9.77691 21.6109C15.0144 26.6045 19.8906 28.7447 22.0579 29.458C24.2251 30.1714 26.5729 29.458 28.0177 28.0313C29.4625 26.6045 30.9074 25.1778 29.2819 23.0377C28.1304 21.5211 26.4515 19.7676 24.4057 18.7575C22.5448 17.8386 21.4351 18.1725 20.7936 19.4708C20.4382 20.1885 20.3284 21.5624 20.0712 22.3243C19.7461 23.2859 18.4458 23.0377 17.001 22.3243C15.6183 21.6409 12.1247 18.7575 9.23511 14.4772C7.44353 11.8249 10.3072 11.8092 12.1247 10.9104C13.5696 10.197 14.0175 8.55624 12.8471 6.63014C10.6799 3.06328 9.95752 1.63654 8.3321 1.63654Z" stroke="white" stroke-width="3"/>
</svg>
