<svg width="132" height="150" viewBox="0 0 132 150" fill="none" xmlns="http://www.w3.org/2000/svg">
<path d="M70.6875 93.75C68.1 93.75 66 89.55 66 84.375C66 79.2 68.1 75 70.6875 75C73.275 75 75.375 79.2 75.375 84.375C75.375 89.55 73.275 93.75 70.6875 93.75Z" fill="#013295"/>
<path d="M92.5125 1.14371C93.0195 1.58437 93.4259 2.12884 93.7041 2.74026C93.9823 3.35167 94.1258 4.01573 94.125 4.68746V9.37496H98.8125C102.542 9.37496 106.119 10.8565 108.756 13.4938C111.393 16.131 112.875 19.7079 112.875 23.4375V140.625H126.938C128.181 140.625 129.373 141.119 130.252 141.998C131.131 142.877 131.625 144.069 131.625 145.312C131.625 146.556 131.131 147.748 130.252 148.627C129.373 149.506 128.181 150 126.938 150H5.0625C3.8193 150 2.62701 149.506 1.74794 148.627C0.86886 147.748 0.375 146.556 0.375 145.312C0.375 144.069 0.86886 142.877 1.74794 141.998C2.62701 141.119 3.8193 140.625 5.0625 140.625H19.125V14.0625C19.1252 12.9331 19.5331 11.8417 20.2737 10.9891C21.0144 10.1365 22.038 9.57995 23.1562 9.42184L88.7812 0.0468384C89.4455 -0.0480183 90.1223 0.000819348 90.766 0.19005C91.4097 0.379282 92.0053 0.704496 92.5125 1.14371ZM98.8125 18.75H94.125V140.625H103.5V23.4375C103.5 22.1943 103.006 21.002 102.127 20.1229C101.248 19.2438 100.056 18.75 98.8125 18.75ZM28.5 18.1312V140.625H84.75V10.0968L28.5 18.1312Z" fill="#013295"/>
</svg>
