<svg width="151" height="151" viewBox="0 0 151 151" fill="none" xmlns="http://www.w3.org/2000/svg">
<g clip-path="url(#clip0)">
<path d="M55.3823 0.654053C44.4625 0.654053 35.2668 9.84972 35.2668 20.7696C35.2668 31.6894 44.4625 40.8851 55.3823 40.8851C63.1986 40.8851 70.0379 36.0804 73.3426 29.3905H109.982L115.729 23.6432V17.8959L109.982 12.1486H104.234L99.5618 16.8212L95.6134 12.1486H90.9408L87.5327 15.5625L83.5785 12.1486H73.3426C70.0322 5.45879 63.2044 0.654053 55.3823 0.654053ZM49.635 15.0223C53.0834 15.0223 55.3823 17.3212 55.3823 20.7696C55.3823 24.218 53.0834 26.5169 49.635 26.5169C46.1866 26.5169 43.8877 24.218 43.8877 20.7696C43.8877 17.3212 46.1866 15.0223 49.635 15.0223ZM53.0489 52.3797C47.9346 52.3963 42.9675 54.0927 38.9115 57.2079C34.8554 60.3232 31.9352 64.6847 30.6 69.6216L26.4619 86.8635H23.7722C20.3238 86.8635 18.0249 89.1624 18.0249 92.6108V98.3581C18.0249 101.806 20.3238 104.105 23.7722 104.105V144.336C23.7722 147.785 26.0711 150.084 29.5195 150.084H41.0141C44.4625 150.084 46.7614 147.785 46.7614 144.336V138.589H104.234V144.336C104.234 147.785 106.533 150.084 109.982 150.084H121.476C124.925 150.084 127.223 147.785 127.223 144.336V104.105C130.672 104.105 132.971 101.806 132.971 98.3581V92.6108C132.971 89.1624 130.672 86.8635 127.223 86.8635H124.528L120.401 69.6216C117.528 59.2765 108.292 52.3797 97.9468 52.3797H53.0489ZM53.0489 63.8743H97.9468C103.119 63.8743 107.757 67.3227 108.907 72.4952L113.752 92.6108H37.2439L42.0888 72.4952C43.2383 67.3227 47.8763 63.8743 53.0489 63.8743ZM43.8877 109.853C48.4856 109.853 52.5087 113.876 52.5087 118.474C52.5087 123.071 48.4856 127.095 43.8877 127.095C39.2899 127.095 35.2668 123.071 35.2668 118.474C35.2668 113.876 39.2899 109.853 43.8877 109.853ZM107.108 109.853C111.706 109.853 115.729 113.876 115.729 118.474C115.729 123.071 111.706 127.095 107.108 127.095C102.51 127.095 98.487 123.071 98.487 118.474C98.487 113.876 102.51 109.853 107.108 109.853Z" fill="#013295"/>
</g>
<defs>
<clipPath id="clip0">
<rect width="149.43" height="149.43" fill="white" transform="translate(0.783203 0.654053)"/>
</clipPath>
</defs>
</svg>
