<svg width="151" height="151" viewBox="0 0 151 151" fill="none" xmlns="http://www.w3.org/2000/svg">
<path d="M136.286 49.6343C137.923 45.8607 138.767 41.789 138.765 37.6735C138.765 21.1349 125.485 7.72703 109.096 7.72703C104.768 7.72703 100.668 8.68474 96.9599 10.366C90.2397 7.22142 82.9137 5.59323 75.498 5.5962C50.6087 5.5962 29.7866 23.5959 25.0258 47.4262H21.2667C15.1238 47.4262 10.1226 52.491 10.1226 58.7196V134.795C10.1226 141.024 15.1238 146.091 21.2667 146.091H129.727C135.872 146.091 140.874 141.024 140.874 134.795V58.7196C140.872 56.9506 140.456 55.2066 139.659 53.6285C138.862 52.0503 137.707 50.6821 136.286 49.6343ZM103.857 19.4654C109.042 23.4285 113.368 28.4087 116.573 34.1026C114.775 36.2685 112.115 37.6712 109.096 37.6712C103.696 37.6712 99.3064 33.2479 99.3064 27.7873C99.3064 26.1284 99.7234 24.4963 100.519 23.0418C101.314 21.5872 102.462 20.3572 103.857 19.4654ZM81.0526 47.4262H47.0177C50.9519 36.9359 60.6204 26.8882 75.498 26.8882C77.513 26.8882 79.4112 27.1177 81.2371 27.4619C80.0477 30.7338 79.4362 34.1886 79.4299 37.6712C79.4299 41.0899 80.0089 44.3657 81.0526 47.4262ZM109.096 17.9082C114.504 17.9082 118.889 22.3315 118.889 27.7897C118.889 28.3681 118.814 28.9277 118.718 29.4803C115.96 25.1672 112.587 21.282 108.706 17.948C108.835 17.9387 108.963 17.9082 109.096 17.9082ZM75.498 9.85319C81.4145 9.85319 87.0765 10.9725 92.3019 12.9932C88.4143 15.694 85.2202 19.2801 82.9812 23.4578C80.5252 22.9037 78.0154 22.6257 75.498 22.6288C54.9188 22.6288 41.0358 40.5138 40.8047 57.3755C40.0365 57.9118 37.4845 58.7009 34.0967 58.7009C30.6575 58.7009 28.7429 57.9001 28.2176 57.4926C28.381 31.1967 49.5276 9.85319 75.498 9.85319ZM14.3416 58.7196C14.3416 54.8396 17.4493 51.6832 21.2691 51.6832H24.3651C24.253 52.6596 24.1619 53.6407 24.1059 54.6336C22.5486 55.5187 21.6123 56.6169 21.6123 57.8087C21.6123 60.7521 27.2019 63.1382 34.0943 63.1382C40.9891 63.1382 46.5834 60.7498 46.5834 57.8087C46.5834 56.9143 46.0604 56.0736 45.1451 55.336C45.2619 54.1418 45.486 52.9172 45.7709 51.6808H82.8925C86.301 58.1755 91.9731 63.1855 98.8277 65.7561H14.3416V58.7196ZM14.3416 134.795V70.0154H99.2083V83.3647L104.142 88.0596V96.0444L99.2083 100.739V111.321L104.142 116.011V123.998L99.2083 128.693V135.975L106.46 141.834H21.2667C17.4493 141.834 14.3416 138.675 14.3416 134.795ZM136.654 134.795C136.654 138.675 133.549 141.834 129.727 141.834H111.735L118.984 135.975V70.0154H136.654V134.795ZM119.37 65.7561C125.567 63.4351 130.819 59.1118 134.296 53.4674C135.037 54.126 135.63 54.9342 136.037 55.839C136.444 56.7438 136.655 57.7247 136.657 58.7173V65.7561H119.37Z" fill="#013295"/>
<path d="M85.1201 93.8222C85.1201 88.4296 80.8077 84.0625 75.4936 84.0625C70.1818 84.0625 65.8764 88.4296 65.8764 93.8222C65.8764 97.0512 67.429 99.9103 69.8106 101.683L65.7783 127.782H85.2182L81.1812 101.683C82.4053 100.773 83.3993 99.5879 84.0834 98.2226C84.7675 96.8574 85.1226 95.3502 85.1201 93.8222Z" fill="#013295"/>
</svg>
