<svg width="151" height="151" viewBox="0 0 151 151" fill="none" xmlns="http://www.w3.org/2000/svg">
<g clip-path="url(#clip0)">
<path d="M131.534 0.650146H19.4619C14.2085 0.650146 9.78206 2.44992 6.18252 6.04946C2.58297 9.649 0.783203 14.0755 0.783203 19.3289V112.722C0.783203 117.976 2.58297 122.402 6.18252 126.002C9.78206 129.601 14.2085 131.401 19.4619 131.401V137.53C19.4619 141.032 20.678 143.999 23.1101 146.432C25.5422 148.864 28.5094 150.08 32.0117 150.08H44.2696C47.7718 150.08 50.739 148.864 53.1711 146.432C55.6033 143.999 56.8193 141.032 56.8193 137.53V131.401H100.306V137.53C100.306 141.032 101.57 143.999 104.1 146.432C106.629 148.864 109.548 150.08 112.855 150.08H125.405C128.713 150.08 131.583 148.864 134.015 146.432C136.447 143.999 137.663 141.032 137.663 137.53V130.234C146.03 127.315 150.213 121.478 150.213 112.722V19.3289C150.213 14.0755 148.413 9.649 144.814 6.04946C141.214 2.44992 136.788 0.650146 131.534 0.650146ZM44.2696 137.53H32.0117V131.401H44.2696V137.53ZM125.405 137.53H112.855V131.401H125.405V137.53ZM137.663 112.722C137.663 116.808 135.62 118.851 131.534 118.851H19.4619C15.3759 118.851 13.333 116.808 13.333 112.722V19.3289C13.333 15.2429 15.3759 13.1999 19.4619 13.1999H131.534C135.62 13.1999 137.663 15.2429 137.663 19.3289V112.722ZM118.984 19.3289H32.0117C28.5094 19.3289 25.5422 20.5449 23.1101 22.977C20.678 25.4092 19.4619 28.3764 19.4619 31.8786V100.173C19.4619 103.675 20.678 106.642 23.1101 109.074C25.5422 111.506 28.5094 112.722 32.0117 112.722H118.984C122.487 112.722 125.454 111.506 127.886 109.074C130.318 106.642 131.534 103.675 131.534 100.173V31.8786C131.534 28.3764 130.318 25.4092 127.886 22.977C125.454 20.5449 122.487 19.3289 118.984 19.3289ZM32.0117 100.173V31.8786H118.984V100.173H32.0117ZM94.1767 38.0076C88.9234 38.0076 84.4969 39.8073 80.8973 43.4069C77.2978 47.0064 75.498 51.4329 75.498 56.6863C75.498 60.5777 76.6655 64.1286 79.0003 67.339C81.3351 70.5494 84.351 72.8356 88.0478 74.1976V87.9147C88.0478 92.0007 90.0908 94.0437 94.1767 94.0437C98.2627 94.0437 100.306 92.0007 100.306 87.9147V74.1976C108.672 71.279 112.855 65.4419 112.855 56.6863C112.855 51.4329 111.056 47.0064 107.456 43.4069C103.857 39.8073 99.4301 38.0076 94.1767 38.0076ZM94.1767 62.8152C90.0908 62.8152 88.0478 60.7722 88.0478 56.6863C88.0478 52.6003 90.0908 50.5573 94.1767 50.5573C98.2627 50.5573 100.306 52.6003 100.306 56.6863C100.306 60.7722 98.2627 62.8152 94.1767 62.8152ZM38.1406 94.0437H69.3691V38.0076H38.1406V94.0437ZM50.6904 50.5573H56.8193V81.4939H50.6904V50.5573Z" fill="#013295"/>
</g>
<defs>
<clipPath id="clip0">
<rect width="149.43" height="149.43" fill="white" transform="translate(0.783203 0.650146)"/>
</clipPath>
</defs>
</svg>
