<svg width="108" height="108" viewBox="0 0 108 108" fill="none" xmlns="http://www.w3.org/2000/svg">
<path d="M87.7501 97.875H87.0751C20.9251 94.1625 11.4751 38.1375 10.1251 20.925C9.7876 15.525 13.8376 10.4625 19.5751 10.125H38.1376C40.8376 10.125 43.5376 11.8125 44.5501 14.5125L49.2751 27C50.2876 29.3625 49.6126 32.4 47.9251 34.425L40.8376 41.5125C43.2001 54.675 53.3251 64.8 66.4876 67.1625L73.9126 60.075C75.9376 58.05 78.6376 57.7125 81.3376 58.725L94.1626 63.7875C96.5251 64.8 98.2126 67.1625 98.2126 70.2V87.75C97.8751 93.4875 93.4876 97.875 87.7501 97.875ZM20.2501 16.875C18.2251 16.875 16.8751 18.225 16.8751 20.25V20.5875C18.5626 40.5 28.3501 87.75 87.4126 91.125C89.4376 91.125 90.7876 89.775 91.1251 88.0875V69.8625L78.3001 64.8L68.5126 74.5875L67.1626 74.25C37.8001 70.5375 33.7501 41.175 33.7501 40.8375L33.4126 39.15L42.8626 29.3625L38.1376 16.875H20.2501Z" fill="#013295"/>
<path d="M87.75 47.25V40.5H72.225L94.5 18.225L89.775 13.5L67.5 35.775V20.25H60.75V47.25L87.75 47.25Z" fill="#013295"/>
</svg>
