<svg width="89" height="88" viewBox="0 0 89 88" fill="none" xmlns="http://www.w3.org/2000/svg">
<path d="M77.7501 87.875H77.0751C10.9251 84.1625 1.4751 28.1375 0.125096 10.925C-0.212404 5.525 3.8376 0.4625 9.5751 0.125H28.1376C30.8376 0.125 33.5376 1.8125 34.5501 4.5125L39.2751 17C40.2876 19.3625 39.6126 22.4 37.9251 24.425L30.8376 31.5125C33.2001 44.675 43.3251 54.8 56.4876 57.1625L63.9126 50.075C65.9376 48.05 68.6376 47.7125 71.3376 48.725L84.1626 53.7875C86.5251 54.8 88.2126 57.1625 88.2126 60.2V77.75C87.8751 83.4875 83.4876 87.875 77.7501 87.875ZM10.2501 6.875C8.2251 6.875 6.8751 8.225 6.8751 10.25V10.5875C8.5626 30.5 18.3501 77.75 77.4126 81.125C79.4376 81.125 80.7876 79.775 81.1251 78.0875V59.8625L68.3001 54.8L58.5126 64.5875L57.1626 64.25C27.8001 60.5375 23.7501 31.175 23.7501 30.8375L23.4126 29.15L32.8626 19.3625L28.1376 6.875H10.2501Z" fill="#013295"/>
</svg>
